[Header]
FileType HTR
DataType HTRS
FileVersion 1
NumSegments 64
NumFrames 3
DataFrameRate 24
EulerRotationOrder ZYX
CalibrationUnits mm
RotationUnits Degrees
GlobalAxisofGravity Y
BoneLengthAxis Y
ScaleFactor 1.0
[SegmentNames&Hierarchy]
Hips	GLOBAL
Spine	Hips
Spine1	Spine
Spine2	Spine1
Neck	Spine2
Head	Neck
LeftEye	Head
RightEye	Head
LeftShoulder	Spine2
LeftArm	LeftShoulder
LeftForeArm	LeftArm
LeftHand	LeftForeArm
LeftHandThumb1	LeftHand
LeftHandThumb2	LeftHandThumb1
LeftHandThumb3	LeftHandThumb2
LeftHandThumb4	LeftHandThumb3
LeftHandIndex1	LeftHand
LeftHandIndex2	LeftHandIndex1
LeftHandIndex3	LeftHandIndex2
LeftHandIndex4	LeftHandIndex3
LeftHandMiddle1	LeftHand
LeftHandMiddle2	LeftHandMiddle1
LeftHandMiddle3	LeftHandMiddle2
LeftHandMiddle4	LeftHandMiddle3
LeftHandRing1	LeftHand
LeftHandRing2	LeftHandRing1
LeftHandRing3	LeftHandRing2
LeftHandRing4	LeftHandRing3
LeftHandPinky1	LeftHand
LeftHandPinky2	LeftHandPinky1
LeftHandPinky3	LeftHandPinky2
LeftHandPinky4	LeftHandPinky3
RightShoulder	Spine2
RightArm	RightShoulder
RightForeArm	RightArm
RightHand	RightForeArm
RightHandPinky1	RightHand
RightHandPinky2	RightHandPinky1
RightHandPinky3	RightHandPinky2
RightHandPinky4	RightHandPinky3
RightHandRing1	RightHand
RightHandRing2	RightHandRing1
RightHandRing3	RightHandRing2
RightHandRing4	RightHandRing3
RightHandMiddle1	RightHand
RightHandMiddle2	RightHandMiddle1
RightHandMiddle3	RightHandMiddle2
RightHandMiddle4	RightHandMiddle3
RightHandIndex1	RightHand
RightHandIndex2	RightHandIndex1
RightHandIndex3	RightHandIndex2
RightHandIndex4	RightHandIndex3
RightHandThumb1	RightHand
RightHandThumb2	RightHandThumb1
RightHandThumb3	RightHandThumb2
RightHandThumb4	RightHandThumb3
LeftUpLeg	Hips
LeftLeg	LeftUpLeg
LeftFoot	LeftLeg
LeftToeBase	LeftFoot
RightUpLeg	Hips
RightLeg	RightUpLeg
RightFoot	RightLeg
RightToeBase	RightFoot
[BasePosition]
Hips	0	0	0	0	0	0	1
Spine	0	0	0	0	0	0	1
Spine1	0	0	0	0	0	0	1
Spine2	0	0	0	0	0	0	1
Neck	0	0	0	0	0	0	1
Head	0	0	0	0	0	0	1
LeftEye	0	0	0	0	0	0	1
RightEye	0	0	0	0	0	0	1
LeftShoulder	0	0	0	0	0	0	1
LeftArm	0	0	0	0	0	0	1
LeftForeArm	0	0	0	0	0	0	1
LeftHand	0	0	0	0	0	0	1
LeftHandThumb1	0	0	0	0	0	0	1
LeftHandThumb2	0	0	0	0	0	0	1
LeftHandThumb3	0	0	0	0	0	0	1
LeftHandThumb4	0	0	0	0	0	0	1
LeftHandIndex1	0	0	0	0	0	0	1
LeftHandIndex2	0	0	0	0	0	0	1
LeftHandIndex3	0	0	0	0	0	0	1
LeftHandIndex4	0	0	0	0	0	0	1
LeftHandMiddle1	0	0	0	0	0	0	1
LeftHandMiddle2	0	0	0	0	0	0	1
LeftHandMiddle3	0	0	0	0	0	0	1
LeftHandMiddle4	0	0	0	0	0	0	1
LeftHandRing1	0	0	0	0	0	0	1
LeftHandRing2	0	0	0	0	0	0	1
LeftHandRing3	0	0	0	0	0	0	1
LeftHandRing4	0	0	0	0	0	0	1
LeftHandPinky1	0	0	0	0	0	0	1
LeftHandPinky2	0	0	0	0	0	0	1
LeftHandPinky3	0	0	0	0	0	0	1
LeftHandPinky4	0	0	0	0	0	0	1
RightShoulder	0	0	0	0	0	0	1
RightArm	0	0	0	0	0	0	1
RightForeArm	0	0	0	0	0	0	1
RightHand	0	0	0	0	0	0	1
RightHandPinky1	0	0	0	0	0	0	1
RightHandPinky2	0	0	0	0	0	0	1
RightHandPinky3	0	0	0	0	0	0	1
RightHandPinky4	0	0	0	0	0	0	1
RightHandRing1	0	0	0	0	0	0	1
RightHandRing2	0	0	0	0	0	0	1
RightHandRing3	0	0	0	0	0	0	1
RightHandRing4	0	0	0	0	0	0	1
RightHandMiddle1	0	0	0	0	0	0	1
RightHandMiddle2	0	0	0	0	0	0	1
RightHandMiddle3	0	0	0	0	0	0	1
RightHandMiddle4	0	0	0	0	0	0	1
RightHandIndex1	0	0	0	0	0	0	1
RightHandIndex2	0	0	0	0	0	0	1
RightHandIndex3	0	0	0	0	0	0	1
RightHandIndex4	0	0	0	0	0	0	1
RightHandThumb1	0	0	0	0	0	0	1
RightHandThumb2	0	0	0	0	0	0	1
RightHandThumb3	0	0	0	0	0	0	1
RightHandThumb4	0	0	0	0	0	0	1
LeftUpLeg	0	0	0	0	0	0	1
LeftLeg	0	0	0	0	0	0	1
LeftFoot	0	0	0	0	0	0	1
LeftToeBase	0	0	0	0	0	0	1
RightUpLeg	0	0	0	0	0	0	1
RightLeg	0	0	0	0	0	0	1
RightFoot	0	0	0	0	0	0	1
RightToeBase	0	0	0	0	0	0	1
[Hips]
3	33.91768265	1023.828674	-1.828598976	-3.20597744	0.8977203965	-3.332395315	1.0
4	58.08307266	1023.106567	-9.765722275	-2.704986095	-1.67169404	-3.41699338	1.0
5	81.26372528	1023.20282	-16.92139244	-2.21327281	-4.275279045	-3.53307128	1.0
[Spine]
3	0	101.8159943	1.315000057	3.658372641	0.9151230454	2.161568165	1.0
4	0	101.8159943	1.315000057	3.767959118	0.6603045464	2.613841534	1.0
5	0	101.8159943	1.315000057	3.828825235	0.3835809231	3.161053658	1.0
[Spine1]
3	0	100.8349991	-10.00800037	1.405010819	-0.0353651531	1.325615525	1.0
4	0	100.8349991	-10.00800037	1.516879916	-0.2762374282	1.026969671	1.0
5	0	100.8349991	-10.00800037	1.591532946	-0.5413059592	0.6911638975	1.0
[Spine2]
3	0	91	-13.73399925	1.370006323	-0.006726779044	1.589161754	1.0
4	0	91	-13.73399925	1.476297975	-0.2252650559	1.600188851	1.0
5	0	91	-13.73399925	1.544103861	-0.4633092284	1.613291979	1.0
[Neck]
3	0	166.7169952	-25.16200066	5.83823061	-2.984939337	1.411820769	1.0
4	0	166.7169952	-25.16200066	6.472186089	-5.214747429	1.872451305	1.0
5	0	166.7169952	-25.16200066	7.133558273	-7.369012356	2.247132778	1.0
[Head]
3	0	96.17900085	16.84999847	-7.660811424	-5.879601479	2.623103857	1.0
4	0	96.17900085	16.84999847	-6.481422424	-11.08112335	4.231411457	1.0
5	0	96.17900085	16.84999847	-5.10389328	-16.21024513	5.693261147	1.0
[LeftEye]
3	30.6760006	64.09500122	92.83599854	0	0	0	1.0
4	30.6760006	64.09500122	92.83599854	0	0	0	1.0
5	30.6760006	64.09500122	92.83599854	0	0	0	1.0
[RightEye]
3	-30.6760006	64.09500122	92.83499908	0	0	0	1.0
4	-30.6760006	64.09500122	92.83499908	0	0	0	1.0
5	-30.6760006	64.09500122	92.83499908	0	0	0	1.0
[LeftShoulder]
3	45.70400238	109.4599991	-26.28000069	4.887447357	-16.88368797	-12.62848377	1.0
4	45.70400238	109.4599991	-26.28000069	4.861377716	-16.80182648	-12.50328445	1.0
5	45.70400238	109.4599991	-26.28000069	4.835772038	-16.70777893	-12.43382359	1.0
[LeftArm]
3	105.923996	-5.24600029	-22.32099915	20.1270504	-1.547085047	-69.51973724	1.0
4	105.923996	-5.24600029	-22.32099915	19.66867447	-0.5264139771	-68.39183807	1.0
5	105.923996	-5.24600029	-22.32099915	19.21889114	0.4997420907	-67.21613312	1.0
[LeftForeArm]
3	278.414978	-0.0009999999311	0	-8.086004527e-06	-2.492308378	-0.0002109348861	1.0
4	278.414978	-0.0009999999311	0	-7.831643416e-06	-3.209824085	-0.0002044215507	1.0
5	278.414978	-0.0009999999311	0	-5.388569207e-06	-3.941050529	-0.0001982597169	1.0
[LeftHand]
3	283.2879944	0	0	-34.01278305	-3.739754677	-4.146400452	1.0
4	283.2879944	0	0	-34.73303223	-2.504272223	-3.945944786	1.0
5	283.2879944	0	0	-35.35990906	-1.064801097	-3.702188492	1.0
[LeftHandThumb1]
3	24.6609993	-15.75	26.8239994	-0.4889863729	2.201392412	4.818544865	1.0
4	24.6609993	-15.75	26.8239994	-0.4889863729	2.201392412	4.818544865	1.0
5	24.6609993	-15.75	26.8239994	-0.4889863729	2.201392412	4.818544865	1.0
[LeftHandThumb2]
3	32.29800034	-18.64699936	18.64699936	19.95524597	20.06818771	23.23996925	1.0
4	32.29800034	-18.64699936	18.64699936	20.03762436	20.17325592	23.24222183	1.0
5	32.29800034	-18.64699936	18.64699936	20.09246254	20.23517036	23.23846436	1.0
[LeftHandThumb3]
3	26.52600098	-15.31499958	15.31499958	-13.14759636	5.547653198	7.973636627	1.0
4	26.52600098	-15.31499958	15.31499958	-13.14931488	5.543424606	7.973450184	1.0
5	26.52600098	-15.31499958	15.31499958	-13.15083599	5.539678574	7.973287106	1.0
[LeftHandThumb4]
3	19.54599953	-11.28499985	11.28499985	0	0	0	1.0
4	19.54599953	-11.28499985	11.28499985	0	0	0	1.0
5	19.54599953	-11.28499985	11.28499985	0	0	0	1.0
[LeftHandIndex1]
3	91.09299469	-5.170999527	22.60099792	0.1169795021	-0.9720901251	-7.762607098	1.0
4	91.09299469	-5.170999527	22.60099792	0.1178088486	-0.9608682394	-7.836371422	1.0
5	91.09299469	-5.170999527	22.60099792	0.1168701276	-0.9558695555	-7.904597759	1.0
[LeftHandIndex2]
3	36.76399994	0	0	-0.2656528652	1.741820455	-17.34200287	1.0
4	36.76399994	0	0	-0.2662128508	1.743609786	-17.36038399	1.0
5	36.76399994	0	0	-0.26696527	1.746015549	-17.3850975	1.0
[LeftHandIndex3]
3	28.83100128	0	0	-0.0569389239	0.813860178	-8.00393486	1.0
4	28.83100128	0	0	-0.05720100179	0.8157147169	-8.02229023	1.0
5	28.83100128	0	0	-0.05755316094	0.8182089329	-8.046973228	1.0
[LeftHandIndex4]
3	23.92700005	0	0	0	0	0	1.0
4	23.92700005	0	0	0	0	0	1.0
5	23.92700005	0	0	0	0	0	1.0
[LeftHandMiddle1]
3	95.33399963	0	0	-0.8062181473	2.590550184	-15.89261055	1.0
4	95.33399963	0	0	-0.8073116541	2.604422569	-15.90841293	1.0
5	95.33399963	0	0	-0.8093341589	2.610575199	-15.93812656	1.0
[LeftHandMiddle2]
3	36.98199844	0	0	-0.2678898871	1.748962045	-17.41542816	1.0
4	36.98199844	0	0	-0.2682806551	1.750208855	-17.42824936	1.0
5	36.98199844	0	0	-0.2687784731	1.751795292	-17.44456863	1.0
[LeftHandMiddle3]
3	29.50900078	0	0	-0.2995030582	1.846677423	-18.42303658	1.0
4	29.50900078	0	0	-0.2999140322	1.847908974	-18.43579102	1.0
5	29.50900078	0	0	-0.3004392087	1.849482894	-18.45209694	1.0
[LeftHandMiddle4]
3	28.3390007	0	0	0	0	0	1.0
4	28.3390007	0	0	0	0	0	1.0
5	28.3390007	0	0	0	0	0	1.0
[LeftHandRing1]
3	91.04499817	-0.4390000105	-18.65100098	-1.199491501	3.38063097	-21.35963821	1.0
4	91.04499817	-0.4390000105	-18.65100098	-1.204099417	3.368830919	-21.42071533	1.0
5	91.04499817	-0.4390000105	-18.65100098	-1.208241105	3.359299183	-21.47554588	1.0
[LeftHandRing2]
3	31.54000092	0	0	-0.3854028881	2.086787462	-20.92563438	1.0
4	31.54000092	0	0	-0.3846436143	2.084795237	-20.90470886	1.0
5	31.54000092	0	0	-0.3839014173	2.082848787	-20.88426208	1.0
[LeftHandRing3]
3	29.37700081	0	0	-0.2822115123	1.793958306	-17.87870979	1.0
4	29.37700081	0	0	-0.2815567255	1.79192996	-17.85782433	1.0
5	29.37700081	0	0	-0.2809170485	1.789948106	-17.83741188	1.0
[LeftHandRing4]
3	26.47500038	0	0	0	0	0	1.0
4	26.47500038	0	0	0	0	0	1.0
5	26.47500038	0	0	0	0	0	1.0
[LeftHandPinky1]
3	80.77799988	-4.887000084	-38.06099701	-1.778938174	5.093493462	-27.42863464	1.0
4	80.77799988	-4.887000084	-38.06099701	-1.796861768	5.018893242	-27.48109818	1.0
5	80.77799988	-4.887000084	-38.06099701	-1.813267589	4.951043129	-27.52959442	1.0
[LeftHandPinky2]
3	36	0	0	-0.2664227784	1.744279146	-17.36728477	1.0
4	36	0	0	-0.2692925334	1.753391504	-17.46098137	1.0
5	36	0	0	-0.2730634809	1.765367866	-17.58414459	1.0
[LeftHandPinky3]
3	21.14200211	0	0	-0.2395460904	1.655937076	-16.46141434	1.0
4	21.14200211	0	0	-0.2422234267	1.664928436	-16.55342865	1.0
5	21.14200211	0	0	-0.2457597852	1.676809072	-16.67502022	1.0
[LeftHandPinky4]
3	19.75699997	0	0	0	0	0	1.0
4	19.75699997	0	0	0	0	0	1.0
5	19.75699997	0	0	0	0	0	1.0
[RightShoulder]
3	-45.70000076	109.4620056	-26.28000069	5.276997566	14.74431133	15.90350342	1.0
4	-45.70000076	109.4620056	-26.28000069	5.253591537	14.67653656	15.83952522	1.0
5	-45.70000076	109.4620056	-26.28000069	5.209616184	14.55425739	15.7016325	1.0
[RightArm]
3	-105.9280014	-5.248000145	-22.32099915	20.25482368	3.515544653	61.16844177	1.0
4	-105.9280014	-5.248000145	-22.32099915	12.88014412	2.620131493	60.61157227	1.0
5	-105.9280014	-5.248000145	-22.32099915	5.554490566	1.187031269	60.23051071	1.0
[RightForeArm]
3	-278.414978	0	0	-9.423083611e-06	9.298129082	-2.430952009e-06	1.0
4	-278.414978	0	0	-1.650166723e-07	11.52945709	6.833958196e-06	1.0
5	-278.414978	0	0	7.932109838e-06	14.08253193	1.542997416e-05	1.0
[RightHand]
3	-283.2879944	0	0.0009999999311	-11.39678478	5.716295719	1.563418031	1.0
4	-283.2879944	0	0.0009999999311	-3.703328609	8.483304977	0.2077177763	1.0
5	-283.2879944	0	0.0009999999311	3.907984495	11.28693676	-0.8590151668	1.0
[RightHandPinky1]
3	-80.76699829	-4.885000229	-38.06000137	-1.532128453	-4.729197502	26.66304779	1.0
4	-80.76699829	-4.885000229	-38.06000137	-1.52870965	-4.927134991	26.89799118	1.0
5	-80.76699829	-4.885000229	-38.06000137	-1.524355531	-5.125189304	27.12929916	1.0
[RightHandPinky2]
3	-36	0	0.0009999999311	-0.2127969712	-1.388986349	17.43935966	1.0
4	-36	0	0.0009999999311	-0.2129332423	-1.389415264	17.44486618	1.0
5	-36	0	0.0009999999311	-0.2131138444	-1.389991164	17.45227814	1.0
[RightHandPinky3]
3	-21.14200211	0	0	-0.1919595897	-1.32075429	16.5383091	1.0
4	-21.14200211	0	0	-0.1920948029	-1.321213484	16.54427528	1.0
5	-21.14200211	0	0	-0.1922752112	-1.321823359	16.55217552	1.0
[RightHandPinky4]
3	-19.75699997	0	0	0	0	0	1.0
4	-19.75699997	0	0	0	0	0	1.0
5	-19.75699997	0	0	0	0	0	1.0
[RightHandRing1]
3	-91.03599548	-0.4390000105	-18.65100098	-1.062334061	-2.95042491	20.7362175	1.0
4	-91.03599548	-0.4390000105	-18.65100098	-1.086075783	-3.072592497	21.09212494	1.0
5	-91.03599548	-0.4390000105	-18.65100098	-1.110194206	-3.189448833	21.45337868	1.0
[RightHandRing2]
3	-31.54000092	0	0	-0.3083158135	-1.663004518	21.00543213	1.0
4	-31.54000092	0	0	-0.3087178469	-1.664032698	21.01914215	1.0
5	-31.54000092	0	0	-0.3090066612	-1.664766312	21.02897263	1.0
[RightHandRing3]
3	-29.37700081	0	0	-0.2259326577	-1.430164814	17.95366287	1.0
4	-29.37700081	0	0	-0.226265654	-1.43119061	17.96696091	1.0
5	-29.37700081	0	0	-0.2265025824	-1.431920886	17.97639084	1.0
[RightHandRing4]
3	-26.47500038	0	0	0	0	0	1.0
4	-26.47500038	0	0	0	0	0	1.0
5	-26.47500038	0	0	0	0	0	1.0
[RightHandMiddle1]
3	-95.32500458	0	0	-0.7210840583	-2.052862883	15.34068489	1.0
4	-95.32500458	0	0	-0.7540156245	-2.260647297	15.87991524	1.0
5	-95.32500458	0	0	-0.7864140868	-2.478352547	16.40962982	1.0
[RightHandMiddle2]
3	-36.98199844	0	0	-0.2140071392	-1.392846704	17.46961784	1.0
4	-36.98199844	0	0	-0.2154004425	-1.397265315	17.52682114	1.0
5	-36.98199844	0	0	-0.216659829	-1.401252627	17.57845688	1.0
[RightHandMiddle3]
3	-29.50900078	0	0	-0.2392403036	-1.472607493	18.47936249	1.0
4	-29.50900078	0	0	-0.2406933457	-1.47693789	18.53580475	1.0
5	-29.50900078	0	0	-0.2420029938	-1.48083961	18.58665466	1.0
[RightHandMiddle4]
3	-28.3390007	0	0.0009999999311	0	0	0	1.0
4	-28.3390007	0	0.0009999999311	0	0	0	1.0
5	-28.3390007	0	0.0009999999311	0	0	0	1.0
[RightHandIndex1]
3	-91.08300018	-5.167999744	22.60099792	0.1864389479	1.203113079	7.108570099	1.0
4	-91.08300018	-5.167999744	22.60099792	0.2084416151	1.056900024	7.626897812	1.0
5	-91.08300018	-5.167999744	22.60099792	0.231085673	0.9091698527	8.146251678	1.0
[RightHandIndex2]
3	-36.76399994	0	0	-0.2124560177	-1.387896299	17.40567017	1.0
4	-36.76399994	0	0	-0.2127310038	-1.388778925	17.41698456	1.0
5	-36.76399994	0	0	-0.2130461633	-1.38978374	17.42990112	1.0
[RightHandIndex3]
3	-28.83100128	0	0	-0.04574020207	-0.6499601603	8.051529884	1.0
4	-28.83100128	0	0	-0.04586990178	-0.6508651972	8.062855721	1.0
5	-28.83100128	0	0	-0.04601940885	-0.6518976092	8.075791359	1.0
[RightHandIndex4]
3	-23.92700005	0	0	0	0	0	1.0
4	-23.92700005	0	0	0	0	0	1.0
5	-23.92700005	0	0	0	0	0	1.0
[RightHandThumb1]
3	-24.64799881	-15.72700024	26.82600021	-1.658462644	-0.289145112	-4.221315384	1.0
4	-24.64799881	-15.72700024	26.82600021	-1.658462644	-0.289145112	-4.221315384	1.0
5	-24.64799881	-15.72700024	26.82600021	-1.658462644	-0.289145112	-4.221315384	1.0
[RightHandThumb2]
3	-32.29800034	-18.64699936	18.64699936	22.39775276	-23.91973686	-24.33693695	1.0
4	-32.29800034	-18.64699936	18.64699936	23.02983284	-24.05672264	-24.6235199	1.0
5	-32.29800034	-18.64699936	18.64699936	23.59687614	-24.17093468	-24.87988091	1.0
[RightHandThumb3]
3	-26.52600098	-15.31399918	15.31399918	-14.49481297	-6.671125889	-11.39347553	1.0
4	-26.52600098	-15.31399918	15.31399918	-14.17622852	-6.012901306	-11.70731354	1.0
5	-26.52600098	-15.31399918	15.31399918	-13.80788994	-5.337028027	-12.03645039	1.0
[RightHandThumb4]
3	-19.54599953	-11.28499985	11.28499985	0	0	0	1.0
4	-19.54599953	-11.28499985	11.28499985	0	0	0	1.0
5	-19.54599953	-11.28499985	11.28499985	0	0	0	1.0
[LeftUpLeg]
3	82.07800293	-67.51699829	-15.99599934	-13.03953266	13.92754078	5.950156689	1.0
4	82.07800293	-67.51699829	-15.99599934	-14.14880371	12.78727627	4.346879005	1.0
5	82.07800293	-67.51699829	-15.99599934	-14.92271042	11.95433521	2.814921379	1.0
[LeftLeg]
3	0	-443.7049866	2.845999956	20.84501076	5.256415367	6.54413271	1.0
4	0	-443.7049866	2.845999956	22.01757431	5.802092552	7.221543312	1.0
5	0	-443.7049866	2.845999956	22.50324821	5.867708206	7.697779655	1.0
[LeftFoot]
3	0	-444.2789917	-29.8219986	-3.183602095	3.202051163	-6.555981159	1.0
4	0	-444.2789917	-29.8219986	-4.055381775	6.256443024	-5.791659355	1.0
5	0	-444.2789917	-29.8219986	-4.616962433	9.608335495	-5.057979584	1.0
[LeftToeBase]
3	0	-87.28699493	107.1060028	-4.928526402	-4.437862572e-06	4.956920066e-07	1.0
4	0	-87.28699493	107.1060028	-4.928526402	-5.592038178e-06	5.190842103e-07	1.0
5	0	-87.28699493	107.1060028	-4.928524971	-6.036373179e-06	3.88394966e-07	1.0
[RightUpLeg]
3	-82.07800293	-67.51699829	-15.99599934	-8.267892838	-0.8723715544	-0.7686659694	1.0
4	-82.07800293	-67.51699829	-15.99599934	-9.569606781	-0.9429841638	-2.967398167	1.0
5	-82.07800293	-67.51699829	-15.99599934	-9.869517326	-3.360470533	-4.624290943	1.0
[RightLeg]
3	0	-443.7049866	2.861999989	21.61016464	-9.814331055	-2.301715851	1.0
4	0	-443.7049866	2.861999989	23.89803886	-11.04415131	-0.8101498485	1.0
5	0	-443.7049866	2.861999989	24.7388401	-11.56733704	1.20020926	1.0
[RightFoot]
3	0	-444.2770081	-29.83799934	-6.413370609	-9.096473694	5.000730991	1.0
4	0	-444.2770081	-29.83799934	-4.915335178	-15.09734917	3.801843643	1.0
5	0	-444.2770081	-29.83799934	-3.436777592	-20.99268532	2.045339108	1.0
[RightToeBase]
3	0	-87.28699493	107.1060028	-7.304268837	-6.06154299e-06	6.72368742e-07	1.0
4	0	-87.28699493	107.1060028	-7.442619324	6.497078175e-06	-2.171156211e-06	1.0
5	0	-87.28699493	107.1060028	-7.844200134	1.369564507e-05	-3.790646815e-06	1.0
[EndOfFile]
